<mxfile host="app.diagrams.net" agent="Mozilla/5.0 (Windows NT 10.0; Win64; x64) AppleWebKit/537.36 (KHTML, like Gecko) Chrome/137.0.0.0 Safari/537.36" version="27.1.3">
  <diagram name="Page-1" id="HaMe94IBjWMGzadNjbz2">
    <mxGraphModel dx="1852" dy="1216" grid="0" gridSize="10" guides="1" tooltips="1" connect="1" arrows="1" fold="1" page="0" pageScale="1" pageWidth="850" pageHeight="1100" math="0" shadow="0">
      <root>
        <mxCell id="0" />
        <mxCell id="1" parent="0" />
        <mxCell id="FzVYITyVL2Xh-uM-Wurn-4" value="" style="whiteSpace=wrap;html=1;aspect=fixed;" vertex="1" parent="1">
          <mxGeometry x="-237" y="-49" width="1084" height="1084" as="geometry" />
        </mxCell>
        <mxCell id="FzVYITyVL2Xh-uM-Wurn-5" value="" style="points=[];aspect=fixed;html=1;align=center;shadow=0;dashed=0;fillColor=#FF6A00;strokeColor=none;shape=mxgraph.alibaba_cloud.nat_gateway;" vertex="1" parent="1">
          <mxGeometry x="19" y="87" width="71.77" height="58" as="geometry" />
        </mxCell>
        <mxCell id="FzVYITyVL2Xh-uM-Wurn-6" value="" style="outlineConnect=0;dashed=0;verticalLabelPosition=bottom;verticalAlign=top;align=center;html=1;shape=mxgraph.aws3.internet_gateway;fillColor=#F58534;gradientColor=none;" vertex="1" parent="1">
          <mxGeometry x="260" y="76.85" width="69" height="72" as="geometry" />
        </mxCell>
        <mxCell id="FzVYITyVL2Xh-uM-Wurn-7" value="" style="image;aspect=fixed;perimeter=ellipsePerimeter;html=1;align=center;shadow=0;dashed=0;spacingTop=3;image=img/lib/active_directory/internet_cloud.svg;" vertex="1" parent="1">
          <mxGeometry x="464" y="76.85" width="104.76" height="66" as="geometry" />
        </mxCell>
        <mxCell id="FzVYITyVL2Xh-uM-Wurn-8" value="" style="sketch=0;verticalLabelPosition=bottom;sketch=0;aspect=fixed;html=1;verticalAlign=top;strokeColor=none;fillColor=#000000;align=center;outlineConnect=0;pointerEvents=1;shape=mxgraph.citrix2.users;" vertex="1" parent="1">
          <mxGeometry x="686" y="79" width="134.28" height="71" as="geometry" />
        </mxCell>
        <mxCell id="FzVYITyVL2Xh-uM-Wurn-9" value="" style="fillColor=#C82128;aspect=fixed;sketch=0;pointerEvents=1;shadow=0;dashed=0;html=1;strokeColor=none;labelPosition=center;verticalLabelPosition=bottom;outlineConnect=0;verticalAlign=top;align=center;shape=mxgraph.openstack.heat_autoscalinggroup;" vertex="1" parent="1">
          <mxGeometry x="-209" y="351" width="91" height="91" as="geometry" />
        </mxCell>
        <mxCell id="FzVYITyVL2Xh-uM-Wurn-10" value="" style="points=[];aspect=fixed;html=1;align=center;shadow=0;dashed=0;fillColor=#FF6A00;strokeColor=none;shape=mxgraph.alibaba_cloud.alb_application_load_balancer_01;" vertex="1" parent="1">
          <mxGeometry x="247" y="339" width="108.47" height="92" as="geometry" />
        </mxCell>
        <mxCell id="FzVYITyVL2Xh-uM-Wurn-13" value="" style="endArrow=classic;html=1;rounded=0;fontSize=12;startSize=8;endSize=8;curved=1;entryX=0.276;entryY=0.541;entryDx=0;entryDy=0;entryPerimeter=0;" edge="1" parent="1" target="FzVYITyVL2Xh-uM-Wurn-10">
          <mxGeometry width="50" height="50" relative="1" as="geometry">
            <mxPoint x="-118" y="401" as="sourcePoint" />
            <mxPoint x="-68" y="351" as="targetPoint" />
          </mxGeometry>
        </mxCell>
        <mxCell id="FzVYITyVL2Xh-uM-Wurn-14" value="" style="endArrow=classic;html=1;rounded=0;fontSize=12;startSize=8;endSize=8;curved=1;" edge="1" parent="1" target="FzVYITyVL2Xh-uM-Wurn-6">
          <mxGeometry width="50" height="50" relative="1" as="geometry">
            <mxPoint x="90.77000000000001" y="119" as="sourcePoint" />
            <mxPoint x="140.77" y="69" as="targetPoint" />
          </mxGeometry>
        </mxCell>
        <mxCell id="FzVYITyVL2Xh-uM-Wurn-15" value="" style="endArrow=classic;html=1;rounded=0;fontSize=12;startSize=8;endSize=8;curved=1;entryX=0;entryY=0.5;entryDx=0;entryDy=0;" edge="1" parent="1" target="FzVYITyVL2Xh-uM-Wurn-7">
          <mxGeometry width="50" height="50" relative="1" as="geometry">
            <mxPoint x="329" y="116" as="sourcePoint" />
            <mxPoint x="379" y="66" as="targetPoint" />
          </mxGeometry>
        </mxCell>
        <mxCell id="FzVYITyVL2Xh-uM-Wurn-16" value="" style="endArrow=classic;html=1;rounded=0;fontSize=12;startSize=8;endSize=8;curved=1;entryX=0.094;entryY=0.495;entryDx=0;entryDy=0;entryPerimeter=0;" edge="1" parent="1" target="FzVYITyVL2Xh-uM-Wurn-8">
          <mxGeometry width="50" height="50" relative="1" as="geometry">
            <mxPoint x="568.76" y="115" as="sourcePoint" />
            <mxPoint x="618.76" y="65" as="targetPoint" />
          </mxGeometry>
        </mxCell>
        <mxCell id="FzVYITyVL2Xh-uM-Wurn-17" value="" style="outlineConnect=0;dashed=0;verticalLabelPosition=bottom;verticalAlign=top;align=center;html=1;shape=mxgraph.aws3.ec2;fillColor=#F58534;gradientColor=none;" vertex="1" parent="1">
          <mxGeometry x="633" y="379" width="88" height="115" as="geometry" />
        </mxCell>
        <mxCell id="FzVYITyVL2Xh-uM-Wurn-18" value="" style="outlineConnect=0;dashed=0;verticalLabelPosition=bottom;verticalAlign=top;align=center;html=1;shape=mxgraph.aws3.ec2;fillColor=#F58534;gradientColor=none;" vertex="1" parent="1">
          <mxGeometry x="551" y="803" width="92.5" height="123" as="geometry" />
        </mxCell>
        <mxCell id="FzVYITyVL2Xh-uM-Wurn-19" value="" style="outlineConnect=0;dashed=0;verticalLabelPosition=bottom;verticalAlign=top;align=center;html=1;shape=mxgraph.aws3.ec2;fillColor=#F58534;gradientColor=none;" vertex="1" parent="1">
          <mxGeometry x="746" y="846" width="95.5" height="133" as="geometry" />
        </mxCell>
        <mxCell id="FzVYITyVL2Xh-uM-Wurn-20" value="" style="sketch=0;points=[[0,0,0],[0.25,0,0],[0.5,0,0],[0.75,0,0],[1,0,0],[0,1,0],[0.25,1,0],[0.5,1,0],[0.75,1,0],[1,1,0],[0,0.25,0],[0,0.5,0],[0,0.75,0],[1,0.25,0],[1,0.5,0],[1,0.75,0]];outlineConnect=0;fontColor=#232F3E;fillColor=#C925D1;strokeColor=#ffffff;dashed=0;verticalLabelPosition=bottom;verticalAlign=top;align=center;html=1;fontSize=12;fontStyle=0;aspect=fixed;shape=mxgraph.aws4.resourceIcon;resIcon=mxgraph.aws4.dynamodb;" vertex="1" parent="1">
          <mxGeometry x="234" y="825" width="127" height="127" as="geometry" />
        </mxCell>
        <mxCell id="FzVYITyVL2Xh-uM-Wurn-21" value="" style="rounded=0;whiteSpace=wrap;html=1;" vertex="1" parent="1">
          <mxGeometry x="-160" y="511" width="438" height="214" as="geometry" />
        </mxCell>
      </root>
    </mxGraphModel>
  </diagram>
</mxfile>
